<svg xmlns="http://www.w3.org/2000/svg" viewBox="0 0 64 64" role="img" aria-labelledby="title">
  <title id="title">轻插画型红树林图标</title>
  <g fill="none" stroke-linecap="round" stroke-linejoin="round">
    <path stroke="#075A52" stroke-width="4" d="M14 27c-1-6 4-12 11-12 3-6 12-7 16-2 7-2 13 3 13 10 0 6-5 11-12 11H24c-5 0-9-3-10-7Z"/>
    <path stroke="#8C243C" stroke-width="3.5" d="M32 31v12M32 41l-10 11M32 41l10 11M29 45l-2 8M35 45l2 8"/>
    <path stroke="#075A52" stroke-width="2.5" d="M10 57c7-3 14-3 21 0 7 3 15 3 23 0"/>
  </g>
</svg>
